<?xml version="1.0" encoding="UTF-8" standalone="no"?>
<!-- Generator: Adobe Illustrator 12.0.0, SVG Export Plug-In . SVG Version: 6.00 Build 51448)  -->

<svg
   xmlns:dc="http://purl.org/dc/elements/1.1/"
   xmlns:cc="http://creativecommons.org/ns#"
   xmlns:rdf="http://www.w3.org/1999/02/22-rdf-syntax-ns#"
   xmlns:svg="http://www.w3.org/2000/svg"
   xmlns="http://www.w3.org/2000/svg"
   xmlns:sodipodi="http://sodipodi.sourceforge.net/DTD/sodipodi-0.dtd"
   xmlns:inkscape="http://www.inkscape.org/namespaces/inkscape"
   version="1.1"
   id="Layer_1"
   width="643.78"
   height="492.583"
   viewBox="0 0 643.78 492.583"
   overflow="visible"
   enable-background="new 0 0 643.78 492.583"
   xml:space="preserve"
   inkscape:version="0.47 r22583"
   sodipodi:docname="MTV_Logo.svg"><metadata
   id="metadata2948"><rdf:RDF><cc:Work
       rdf:about=""><dc:format>image/svg+xml</dc:format><dc:type
         rdf:resource="http://purl.org/dc/dcmitype/StillImage" /></cc:Work></rdf:RDF></metadata><defs
   id="defs2946"><inkscape:perspective
   sodipodi:type="inkscape:persp3d"
   inkscape:vp_x="0 : 246.2915 : 1"
   inkscape:vp_y="0 : 1000 : 0"
   inkscape:vp_z="643.78003 : 246.2915 : 1"
   inkscape:persp3d-origin="321.89001 : 164.19434 : 1"
   id="perspective2950" />
	
	
	
	
	
	
	
	
	
	
	
	
	
	
	
	
	
	
<inkscape:perspective
   id="perspective4399"
   inkscape:persp3d-origin="0.5 : 0.33333333 : 1"
   inkscape:vp_z="1 : 0.5 : 1"
   inkscape:vp_y="0 : 1000 : 0"
   inkscape:vp_x="0 : 0.5 : 1"
   sodipodi:type="inkscape:persp3d" /><inkscape:perspective
   id="perspective4648"
   inkscape:persp3d-origin="0.5 : 0.33333333 : 1"
   inkscape:vp_z="1 : 0.5 : 1"
   inkscape:vp_y="0 : 1000 : 0"
   inkscape:vp_x="0 : 0.5 : 1"
   sodipodi:type="inkscape:persp3d" /><inkscape:perspective
   id="perspective4680"
   inkscape:persp3d-origin="0.5 : 0.33333333 : 1"
   inkscape:vp_z="1 : 0.5 : 1"
   inkscape:vp_y="0 : 1000 : 0"
   inkscape:vp_x="0 : 0.5 : 1"
   sodipodi:type="inkscape:persp3d" /></defs><sodipodi:namedview
   pagecolor="#ffffff"
   bordercolor="#666666"
   borderopacity="1"
   objecttolerance="10"
   gridtolerance="10"
   guidetolerance="10"
   inkscape:pageopacity="0"
   inkscape:pageshadow="2"
   inkscape:window-width="1366"
   inkscape:window-height="744"
   id="namedview2944"
   showgrid="false"
   inkscape:object-paths="true"
   inkscape:zoom="0.67755971"
   inkscape:cx="125.22849"
   inkscape:cy="143.42677"
   inkscape:window-x="0"
   inkscape:window-y="24"
   inkscape:window-maximized="1"
   inkscape:current-layer="Layer_1" />

<rect
   style="fill:#4a5369;fill-opacity:1"
   id="rect4618"
   width="644.94983"
   height="411.18155"
   x="-1.5661337e-05"
   y="-2.5396838e-07" /><path
   style="fill:#e7e8eb;marker-start:none"
   d="m 136.125,23.46875 c -17.69662,0.23952 -35.39603,0.210886 -53.09375,0.125 C 75.31968,49.848131 69.980943,79.52151 48.494612,98.533405 35.659659,110.18032 19.738348,117.38464 4.875,126.03125 c -0.00148,18.52088 -0.05727,37.04169 0,55.5625 13.58335,0.0302 27.166698,0.0752 40.75,0.125 0.848884,49.89696 -2.298198,99.96489 1.625,149.75 3.326591,25.4446 20.010665,48.8825 44.044024,58.44651 37.019046,17.90243 80.426116,14.10482 118.846776,2.96932 8.84268,-2.58447 17.68452,-5.43768 26.32795,-8.66583 0.18895,-21.93855 0.40522,-43.87777 0.875,-65.8125 -22.70306,11.38307 -48.97042,21.0873 -74.4375,14.375 -7.8381,-2.23414 -15.20468,-6.08145 -21.5,-11.3125 -4.69381,-46.39742 -3.70564,-93.09749 -3.28125,-139.65625 28.73954,-0.0873 57.47921,-0.12779 86.21875,-0.21875 0.01,-21.43755 0.004,-42.87515 -0.0937,-64.3125 -28.7395,-0.0969 -57.47928,-0.079 -86.21875,-0.1875 -0.0397,-31.218685 -0.14601,-62.438607 0.15625,-93.65625 -0.6875,0.01042 -1.375,0.02083 -2.0625,0.03125 z"
   id="path3064" /><g
   inkscape:groupmode="layer"
   id="layer1"
   inkscape:label="bg" /><g
   inkscape:groupmode="layer"
   id="layer2"
   inkscape:label="t" /><path
   style="fill:#ffa300;fill-opacity:1"
   d="m 272.10315,380.18797 c -2.42362,-2.29223 -3.50694,-5.528 -3.50694,-10.47503 0,-3.93702 -0.85932,-11.55467 -1.9096,-16.92813 -1.41335,-7.23101 -1.3487,-15.60627 0.24878,-32.22881 2.56312,-26.6704 2.45436,-64.14069 -0.21762,-74.97605 -1.04981,-4.25717 -3.45397,-9.06289 -5.34259,-10.67941 -3.30165,-2.82595 -3.80665,-2.76617 -13.1191,1.55346 -19.34539,8.97344 -33.36785,19.04646 -42.00707,30.17569 -7.35677,9.47722 -9.01921,10.73738 -14.16488,10.73738 -5.06885,0 -6.31324,-0.89608 -9.53262,-6.86444 -3.65992,-6.78506 -3.66391,-6.91361 -0.34592,-11.11673 2.13553,-2.70524 6.47735,-5.00521 11.93392,-6.32171 4.71741,-1.13818 12.94493,-5.09149 18.28338,-8.78512 22.74452,-15.73674 30.9686,-20.65901 40.22736,-24.07678 l 9.80881,-3.62078 -0.56675,-9.16899 c -0.89101,-14.41508 5.40897,-17.68521 21.71308,-11.27063 4.89033,1.92403 6.59701,1.58828 19.2882,-3.7944 10.94181,-4.64074 14.97975,-7.35535 18.8576,-12.67756 2.71396,-3.72479 6.91472,-7.24239 9.33504,-7.81692 10.14891,-2.40911 17.89617,6.90017 12.37485,14.86989 -2.25376,3.25317 -11.26641,7.9259 -46.8093,24.2688 -4.14478,1.9058 -4.63362,18.60687 -2.35542,80.47179 1.52174,41.32289 2.80966,58.78373 4.82115,65.36257 3.75015,12.26528 2.16516,21.06864 -4.36858,24.26416 -7.25759,3.54956 -18.40848,3.1053 -22.64578,-0.90225 z m 78.95333,-31.97547 c -4.97272,-2.37976 -6.2636,-5.34203 -20.03221,-45.9694 -9.26119,-27.32729 -18.59123,-60.97282 -18.59123,-67.04286 0,-2.99056 13.51669,-9.26069 19.87194,-9.21822 7.83245,0.0524 8.72484,2.10466 11.15191,25.64715 3.07273,29.80547 7.62531,39.59543 16.07005,34.55742 3.99834,-2.38532 14.61852,-19.46562 19.92008,-32.03714 5.33883,-12.65993 10.40658,-21.32497 19.56856,-33.45908 3.66703,-4.85659 9.55524,-13.06271 13.08494,-18.23583 9.4459,-13.84388 40.48229,-47.66138 46.39637,-50.55384 6.40077,-3.1305 11.56566,-1.9554 18.55796,4.22224 12.59189,11.12482 3.88843,29.50972 -19.46434,41.1159 -10.14412,5.04157 -12.78546,7.27519 -16.25015,13.74171 -2.27544,4.24689 -5.46237,8.7618 -7.08208,10.03314 -3.81509,2.9946 -14.06444,18.16662 -17.45132,25.83307 -1.45287,3.28868 -6.07753,10.30242 -10.27703,15.5861 -4.19949,5.28365 -12.1472,18.08159 -17.66157,28.43984 -8.60497,16.16367 -10.33694,21.0079 -12.21881,34.17531 -1.87514,13.12043 -2.92219,16.06228 -7.23054,20.31541 -5.45664,5.3867 -11.19836,6.27756 -18.36253,2.84908 z"
   id="path4734" /><flowRoot
   xml:space="preserve"
   id="flowRoot4969"
   style="font-size:40px;font-style:normal;font-variant:normal;font-weight:normal;font-stretch:normal;fill:#000000;fill-opacity:1;stroke:none;font-family:Lohit Gujarati;-inkscape-font-specification:Lohit Gujarati"
   transform="matrix(0.92451339,0,0,1,-7.7212494,-14.038679)"><flowRegion
     id="flowRegion4971"><rect
       id="rect4973"
       width="653.81689"
       height="104.7878"
       x="14.758847"
       y="436.49939" /></flowRegion><flowPara
     id="flowPara4975"
     style="font-size:56px;font-style:normal;font-variant:normal;font-weight:bold;font-stretch:normal;font-family:Pothana2000;-inkscape-font-specification:Pothana2000 Bold">TUMBLR TELEVISION</flowPara></flowRoot></svg>